<svg xmlns="http://www.w3.org/2000/svg" width="1024" height="1024" viewBox="0 0 270.9 271"><defs/><g transform="rotate(-1 7970.4 2519.2) scale(1.15007)"><path d="M39.2-120.6l-4 235.6 235.5 4 4.1-235.5-235.6-4.1zM261.1-74a6.3 6.3 0 016.2 6.4 6.3 6.3 0 01-6.4 6.2 6.3 6.3 0 01-6.2-6.4A6.3 6.3 0 01261-74zm-79.9-.6c4.2 0 8.6 1.5 12.2 4.6 3.7 3.4 6.4 8.7 6.7 15.7.1 4.6-1.1 9-3.4 13a2.9 2.9 0 01.7 2l-.4 7.6 6-1.7a2.9 2.9 0 013.6 3.2c-2.7 19-.2 38.5 7 56.3a161 161 0 002.8-83.6 2.9 2.9 0 011.6-3.3L244-73a2.9 2.9 0 014.2 2.4c3.4 53.9-3 102.6-31.8 136.6a2.9 2.9 0 01-4.3.1c-7-7.4-12.8-15.6-17.5-24.6 0 6.6.2 13.1.5 19.6a2.9 2.9 0 01-2 3L162.5 74a2.9 2.9 0 01-3.7-3.4l1-5-1.6.8a2.9 2.9 0 01-4-1.7A35.4 35.4 0 00135.5 44l1.8 8.4a2.9 2.9 0 01-2.2 3.6l-18 3a2.9 2.9 0 01-3.3-2.4c-1-6.5-1.6-13-2.2-19.8l-4.8-1.2a2.9 2.9 0 01-2.1-2.5l-2.2-19.8a2.9 2.9 0 012.9-3.1h4.8c0-18.2 2.5-36.2 7.1-53.7-9 .5-17.7 2.2-26.2 5-.3 3.2-.5 6.5-.6 9.7 5.7-.8 11.7-1.8 17.8-2.5a2.9 2.9 0 013.1 3.3c-1 6.5-1.6 13.9-2 20.5a2.9 2.9 0 01-2.7 2.7c-4.7.3-10.3.8-16.2 1.4 1.3 22.4 7.2 44.2 17.6 64a2.9 2.9 0 01-1.2 4L80 78.8a2.9 2.9 0 01-4-1.7C68.1 53.2 64 27.4 64 0l-6 .8a2.9 2.9 0 01-3.3-2.7c-.2-6.8 0-13.5 1-20.3a2.9 2.9 0 012.4-2.4l6.9-1c1-10.8 2.9-20 5-31.5a2.9 2.9 0 011.9-2.1 164.5 164.5 0 0159-11.2 2.9 2.9 0 012.8 3.6l-1.3 4.7c8.4 6.6 22.2 21.2 29.5 38.5 1.7 4 2.9 8 3.7 12.1l.2-22a2.9 2.9 0 011-2c-3.9-3.7-6.3-9-6.5-15-.5-4.8 1-10.2 4.4-14.9a21 21 0 0115.6-9 2.9 2.9 0 01.1 0l.8-.1zm-43.7 48.8c-3 11-4.7 23-4.9 35.2 5.4-1 8.6-3 10.5-5.4 2.1-2.8 2.7-6.6 2.1-11a49.7 49.7 0 00-7.7-18.8zm27.8 31c-2 7.7-7 14.9-15.5 21 5 1.3 9.6 3.4 14 6 .8-9 1.2-18 1.5-27z"/><path fill="none" d="M258.7-71a5.5 5.5 0 00-5.6 5.4 5.5 5.5 0 005.4 5.5 5.5 5.5 0 005.6-5.4 5.5 5.5 0 00-5.4-5.6zm-77.5-.6h-.7c-12 .8-18.3 13.2-17.3 21 .1 7.5 4.3 13.7 10 16.2l-4.5 1c-.1 24-.3 47.8-2.3 70.5-7.1-4.8-15.2-8-23.7-9.6C190 1.5 144-50.3 129.2-61l1.8-6.4c-19.9 0-39.6 3.8-58 11-2.5 12.3-4.6 21.8-5.5 33.4l-9 1.3c-1 6.6-1.2 13.2-1 19.8l9.2-1.2c-.3 28.3 4 54.8 12 79.6L105.6 62c-11-21-17.3-44.3-18.2-68 7.2-.8 13.5-1.3 19.2-1.7.3-6.7 1-14.1 2-20.7-7.2.7-14.4 2-21.2 2.9.1-4.8.5-10.3 1-15.1 10.4-3.8 21.5-5.8 32.6-6a208.7 208.7 0 00-8 59.6h-7.6l2.1 19.8 6.7 1.7a418 418 0 002.4 21.8l18-3.2c-1.2-4.5-2.2-9-3-13.7a38.3 38.3 0 0125.2 24.4l6.7-3.4c-.6 3.6-1.2 7.2-2 10.8l30.8-10a496 496 0 01-.6-32.6 111.5 111.5 0 0022.5 35.6c28.1-33.2 34.5-81 31.1-134.6l-26 12.3a164 164 0 01-5.4 92.4 113.1 113.1 0 01-10.1-64.8l-9.9 2.8.6-11.6-3.3.7c4-4.1 6.2-9.7 6-15.5-.5-12.3-8.7-17.5-16-17.5zm-45 39.5c8.4 9.2 25.4 41.9-6.5 45-.2-15.8 2.1-31.1 6.5-45z"/><circle cx="183.7" cy="-54.3" r="1" fill="none"/></g></svg>